<svg xmlns="http://www.w3.org/2000/svg" width="22" height="20" viewBox="0 0 22 20">
    <g fill="none" fill-rule="evenodd">
        <g>
            <g>
                <path d="M0 0L24 0 24 24 0 24z" opacity=".87" transform="translate(-143 -227) translate(142 226)"/>
                <path fill="#E94441" fill-rule="nonzero" d="M14.17 1l1.06 1.05c.27.27.44.65.44 1.06l-.03.32L14.69 8H21c1.1 0 2 .9 2 2v2c0 .26-.05.5-.14.73l-3.02 7.05C19.54 20.5 18.83 21 18 21H9c-1.1 0-2-.9-2-2V9c0-.55.22-1.05.59-1.41L14.17 1zM5 9v12H1V9h4z" transform="translate(-143 -227) translate(142 226)"/>
            </g>
        </g>
    </g>
</svg>
