<svg xmlns="http://www.w3.org/2000/svg" width="22" height="18" viewBox="0 0 22 18">
    <g fill="none" fill-rule="evenodd">
        <g>
            <g>
                <path d="M24 24L0 24 0 0 24 0z" transform="translate(-223 -83) translate(222 80)"/>
                <g fill="#2B2525" fill-rule="nonzero">
                    <path d="M21.667 0H19.5c-.596 0-1.083.431-1.083.958v8.625c0 .527.487.959 1.083.959h2.167V0zM.184 6.823C.065 7.063 0 7.322 0 7.59v1.035c0 1.054.975 1.917 2.167 1.917h5.958l-.997 4.456c-.054.21-.021.44.087.632.25.432.563.825.953 1.17l.499.45 6.944-6.143c.412-.364.639-.853.639-1.36V2.241C16.25 1.006 15.113 0 13.715 0H4.94c-.77 0-1.473.355-1.863.93L.184 6.823z" transform="translate(-223 -83) translate(222 80) translate(1 3)"/>
                </g>
            </g>
        </g>
    </g>
</svg>
