<svg xmlns="http://www.w3.org/2000/svg" width="24" height="23" viewBox="0 0 24 23">
    <g fill="none" fill-rule="evenodd">
        <g fill="#EAB60F" fill-rule="nonzero">
            <g>
                <path d="M12.004 0c.812 0 1.506.468 1.814 1.22l2.23 5.464c.044.118.152.192.274.202l5.855.423c.782.044 1.462.57 1.716 1.339.26.777.04 1.594-.577 2.126l-4.592 3.77c-.093.079-.137.207-.108.33L20 20.569c.137.615 0 1.23-.376 1.703-.362.457-.92.728-1.482.728-.367 0-.729-.113-1.042-.325l-4.993-3.086c-.103-.064-.235-.064-.338 0l-4.944 3.096c-.299.202-.66.315-1.032.315-.602 0-1.174-.29-1.54-.773-.358-.477-.47-1.087-.309-1.678l1.38-5.68c.029-.118-.016-.246-.108-.325l-4.524-3.76C.066 10.247-.154 9.43.11 8.653c.259-.768.934-1.29 1.726-1.334l5.844-.423c.123-.01.225-.089.274-.202l2.235-5.468C10.502.468 11.192 0 12.004 0z" transform="translate(-306 -227) translate(306 227)"/>
            </g>
        </g>
    </g>
</svg>
