<svg xmlns="http://www.w3.org/2000/svg" width="521" height="80" viewBox="0 0 521 80">
    <g fill="none" fill-rule="evenodd">
        <g fill-rule="nonzero">
            <g>
                <path fill="#545454" d="M184.7 25.681c5.155-4.058 12.395-7.478 20.156-7.478 7.356 0 13.495 3.014 13.495 14.493V71.71H208.1V35.13c0-6.55-2.896-8.347-7.935-8.347-5.734 0-11.063 2.724-15.406 5.217v39.71h-10.252V1.16h5.618c3.939 0 4.634.927 4.634 6.84v17.681h-.058zM237 47.362c.522 12.522 6.14 17.218 16.044 17.218 6.776 0 11.41-2.203 14.595-4.812h3.302v7.13c-3.823 2.61-9.557 5.45-19.46 5.45-16.102 0-25.08-10.261-25.08-26.84 0-16.812 10.368-27.305 24.095-27.305 13.9 0 22.066 8.174 22.066 25.507 0 1.391-.115 3.247-.115 3.652H237zm.174-6.782h25.195c-.174-11.42-4.634-15.305-11.873-15.305-6.893 0-12.221 4.116-13.322 15.305zM310.325 65.913c-3.939 4.232-8.688 6.435-15.696 6.435-9.556 0-16.507-5.45-16.507-15.71 0-10.783 8.572-16.058 20.446-16.058 4.517 0 7.876.521 11.467 1.391v-6.957c0-6.26-3.649-8.985-10.599-8.985-6.255 0-11.062 1.913-14.421 4.348h-3.244v-7.652c4.634-2.32 10.483-4.522 18.94-4.522 12.51 0 19.634 4.522 19.634 16.116V71.71h-4.055c-3.938.058-5.328-1.101-5.965-5.797zm-.29-6.667V48.058c-2.896-.58-6.139-.986-9.788-.986-7.066 0-12.105 2.61-12.105 8.986 0 6.55 4.112 9.275 9.788 9.275 5.56-.058 9.094-2.666 12.105-6.087zM365.637 64.58c-3.65 4.348-9.267 7.768-16.507 7.768-11.004 0-20.33-7.884-20.33-26.203 0-20.696 11.179-27.942 21.778-27.942 7.24 0 11.584 2.145 15 5.45V1.158h5.619c4.054 0 4.633.986 4.633 6.841v63.71h-6.776c-2.317.058-3.128-1.16-3.417-7.13zm-.116-6.84V30.898c-3.012-2.841-6.66-4.464-12.105-4.464-6.95 0-14.306 3.71-14.306 19.13 0 14.435 5.329 19.13 12.51 19.13 5.85.117 9.962-2.608 13.9-6.956zM384.344 45.507c0-16.811 10.889-27.304 25.195-27.304 14.305 0 25.194 10.493 25.194 27.304 0 16.754-10.889 26.84-25.194 26.84-14.306 0-25.195-10.086-25.195-26.84zm39.848 0c0-12.695-5.734-19.536-14.711-19.536-8.862 0-14.712 6.84-14.712 19.536 0 12.696 5.85 19.073 14.712 19.073 8.977 0 14.71-6.32 14.71-19.073zM476.492 59.362V19.014h10.251v52.754h-6.429c-2.432 0-3.417-.811-3.706-5.97-5.213 3.71-12.105 6.666-19.055 6.666-8.283 0-14.422-3.42-14.422-14.087V19.014h10.252V56c0 6.783 3.3 8.348 8.166 8.348 5.328.058 10.715-2.493 14.943-4.986zM493.867 18.84h6.371V4.58h6.197c3.186 0 4.17 1.16 4.17 5.623l-.115 8.638h11.7v7.246h-11.7v31.014c0 5.624 2.316 7.247 7.529 7.247h4.75v6.666c-1.854.406-4.75.986-8.34.986-8.92 0-14.133-3.768-14.133-13.565V26.087h-6.37v-7.246h-.059z" transform="translate(0 -218) translate(-2 218)"/>
                <path fill="#EC1943" d="M143.173 32.638c-10.599 19.884-36.835 29.797-63.883 29.797-21.488 0-42.628-2.84-61.046-11.015 44.018 4.696 86.646 2.84 124.93-18.782zm0-8.29c-12.857-3.826-24.441-4.928-36.43-4.812-30.407.232-61.161 9.392-88.325 21.392 21.603-19.189 53.748-33.16 85.95-33.16 15.349 0 33.014 6.55 38.805 16.58zm5.908 4.348C149.081 8.29 118.327 0 100.777 0c-27.51 0-50.62 10.029-70.37 21.043-1.216-2.202-2.954-2.608-5.676-2.956-4.054-.348-6.545-.522-9.614-.522-3.36 0-8.399.232-12.337.87C.87 18.783.232 20.29.753 22.609c1.737 6.319 4.344 12 7.761 17.333-1.506 5.217-.985 10.145 3.36 14.203-1.507 6.087-1.97 12.754-1.738 18.783.347 2.492 1.621 3.188 3.706 2.84 7.761-1.217 15.29-3.942 21.836-7.42 1.621-.87 2.374-1.855 2.838-3.073l19.17 2.957c2.954 3.188 5.908 5.913 9.499 8.927 2.375 1.74 4.923 2.725 8.05 2.725 13.959-.116 25.716-2.203 35.446-5.913 3.823-1.217 6.661-6.319 10.889-13.45 9.383-4.753 27.511-13.68 27.511-31.825z" transform="translate(0 -218) translate(-2 218)"/>
            </g>
        </g>
    </g>
</svg>
