<svg xmlns="http://www.w3.org/2000/svg" width="26" height="25" viewBox="0 0 26 25">
    <g fill="none" fill-rule="evenodd">
        <g fill="#202020" fill-rule="nonzero" stroke="#202020" stroke-width=".5">
            <g>
                <path d="M22.177 7.309l-5.855-.423c-.122-.01-.23-.084-.274-.202l-2.23-5.463C13.51.468 12.816 0 12.004 0s-1.502.468-1.815 1.226L7.954 6.694c-.049.113-.151.192-.274.202l-5.844.423C1.044 7.363.37 7.885.11 8.653c-.264.777-.044 1.594.582 2.13l4.524 3.761c.092.079.137.207.107.325l-1.379 5.68c-.161.59-.049 1.2.308 1.678.367.483.94.773 1.54.773.372 0 .734-.113 1.033-.315l4.944-3.096c.103-.064.235-.064.338 0l4.993 3.086c.313.212.675.325 1.042.325.562 0 1.12-.27 1.482-.728.376-.473.513-1.088.376-1.703l-1.384-5.695c-.03-.123.015-.251.108-.33l4.592-3.77c.616-.532.836-1.349.577-2.126-.254-.768-.934-1.295-1.716-1.339zm.376 2.535l-4.582 3.765c-.45.37-.656.98-.514 1.55l1.384 5.685c.073.335-.059.566-.147.675-.137.172-.342.28-.547.28-.128 0-.255-.04-.392-.133l-5.013-3.1c-.24-.148-.513-.227-.797-.227-.283 0-.562.079-.802.231L6.18 21.676c-.318.212-.743.118-.968-.177-.093-.123-.191-.335-.103-.645l1.384-5.7c.137-.566-.064-1.17-.509-1.54L1.47 9.859c-.357-.31-.259-.71-.22-.822.04-.114.2-.493.67-.517l5.854-.423c.578-.045 1.076-.404 1.296-.945l2.235-5.469c.181-.443.587-.477.705-.477.117 0 .523.034.704.477l2.235 5.469c.22.54.719.9 1.296.945l5.864.428c.46.024.621.403.66.517.03.103.127.502-.215.802z" transform="translate(-305 -80) translate(306 81)"/>
            </g>
        </g>
    </g>
</svg>
