<svg xmlns="http://www.w3.org/2000/svg" width="16" height="15" viewBox="0 0 16 15">
    <g fill="none" fill-rule="evenodd">
        <g fill="#000" fill-rule="nonzero">
            <g>
                <g>
                    <g>
                        <g>
                            <path d="M13.284 2.317C10.4-.567 5.719-.6 2.786 2.236L1.75 1.199c-.13-.13-.324-.178-.519-.13-.146.049-.308.21-.34.389L.097 5.281c-.032.178.016.34.13.454.13.13.291.178.47.13L4.52 5.07c.194-.033.34-.162.389-.357.048-.178 0-.389-.13-.518l-1.053-1.02C6.14.858 9.979.89 12.344 3.255c2.398 2.398 2.398 6.302 0 8.716-1.166 1.166-2.705 1.798-4.357 1.798-1.653 0-3.192-.648-4.358-1.798-.907-.907-1.507-2.058-1.717-3.321-.065-.357-.405-.616-.762-.551-.356.065-.6.405-.55.761.259 1.54.988 2.933 2.09 4.034 1.409 1.41 3.288 2.187 5.297 2.187 2.008 0 3.888-.777 5.297-2.187 2.916-2.916 2.916-7.662 0-10.578z" transform="translate(-32 -235) translate(32 234) translate(0 .9)"/>
                            <path d="M8.035 2.916c-.372 0-.664.292-.664.664v4.034c0 .243.13.47.34.583L9.85 9.38c.097.065.21.08.324.08.226 0 .453-.129.583-.34.178-.323.065-.728-.26-.907L8.7 7.225V3.58c0-.372-.291-.664-.664-.664z" transform="translate(-32 -235) translate(32 234) translate(0 .9)"/>
                        </g>
                    </g>
                </g>
            </g>
        </g>
    </g>
</svg>
