<svg xmlns="http://www.w3.org/2000/svg" width="18" height="12" viewBox="0 0 18 12">
    <g fill="none" fill-rule="evenodd">
        <g fill="#000" fill-rule="nonzero">
            <path d="M44.439 426.696c.017.347.33.646.656.628h2.232l-5.613 5.964-2.81-2.241c-.13-.142-.32-.218-.506-.2-.138.014-.27.078-.37.18l-5.815 5.736c-.258.229-.287.694-.059.957.229.263.667.27.903.015l5.432-5.364 2.738 2.179c.249.277.65.322.986.075l5.996-6.37v2.378c-.004.35.294.672.623.672.33 0 .628-.322.623-.672v-3.971c0-.347-.296-.662-.623-.662h-3.737c-.37.003-.661.4-.656.696z" transform="translate(-32 -426)"/>
        </g>
    </g>
</svg>
