<svg xmlns="http://www.w3.org/2000/svg" width="27" height="31" viewBox="0 0 27 31">
    <g fill="none" fill-rule="evenodd">
        <g fill="#E94441" fill-rule="nonzero">
            <g>
                <path d="M13.248 18.62c.699 0 1.3-.493 1.437-1.179.136-.685-.23-1.372-.876-1.64-.646-.267-1.39-.041-1.78.54-.388.581-.311 1.356.183 1.85.274.276.647.43 1.036.43zm-.345-1.81c.123-.126.304-.176.474-.13.17.044.302.177.347.347.045.17-.005.35-.13.474-.124.125-.305.175-.474.13-.17-.045-.303-.177-.348-.347-.045-.17.005-.351.13-.474z" transform="translate(-81 -168) translate(81 168)"/>
                <path d="M22.573 7.831c-2.349-2.361-5.509-3.74-8.837-3.853v-.987c0-.027-.002-.054-.007-.081.676-.235 1.083-.923.964-1.628-.12-.705-.73-1.222-1.445-1.222-.715 0-1.326.517-1.445 1.222s.288 1.393.964 1.628c-.005.027-.007.054-.007.081v.987C7.52 4.172 2.89 7.453.974 12.335c-1.918 4.882-.76 10.436 2.95 14.145 3.33 3.336 8.187 4.641 12.741 3.423 4.554-1.219 8.111-4.776 9.33-9.33 1.219-4.553-.086-9.412-3.422-12.742zM12.76 1.526c0-.27.218-.488.488-.488s.488.219.488.488c0 .27-.218.489-.488.489s-.488-.22-.488-.489zm.488 27.84c-6.733 0-12.21-5.478-12.21-12.21 0-6.733 5.477-12.21 12.21-12.21 6.733 0 12.21 5.477 12.21 12.21 0 6.732-5.477 12.21-12.21 12.21z" transform="translate(-81 -168) translate(81 168)"/>
                <path d="M13.248 5.922c-6.194 0-11.233 5.039-11.233 11.233 0 6.194 5.039 11.234 11.233 11.234 6.194 0 11.233-5.04 11.233-11.234S19.442 5.922 13.248 5.922zm0 21.49c-5.656 0-10.257-4.601-10.257-10.257C2.991 11.5 7.592 6.9 13.248 6.9s10.257 4.6 10.257 10.256c0 5.656-4.601 10.257-10.257 10.257z" transform="translate(-81 -168) translate(81 168)"/>
                <path d="M13.248 9.34c.27 0 .488-.218.488-.488v-.976c0-.27-.218-.489-.488-.489s-.488.219-.488.489v.976c0 .27.218.489.488.489zM13.248 24.97c-.27 0-.488.218-.488.488v.977c0 .27.218.488.488.488s.488-.218.488-.488v-.977c0-.27-.218-.488-.488-.488zM22.528 16.667h-.977c-.27 0-.489.219-.489.488 0 .27.22.489.489.489h.977c.27 0 .488-.219.488-.489s-.219-.488-.488-.488zM4.945 16.667H4.03c-.27 0-.488.219-.488.488 0 .27.219.489.488.489h.916c.27 0 .489-.219.489-.489s-.22-.488-.489-.488zM19.473 10.227l-.69.69c-.125.123-.174.304-.13.473.046.17.178.302.347.347.17.045.35-.004.473-.129l.691-.69c.126-.124.176-.305.13-.475-.044-.17-.177-.302-.347-.347-.17-.045-.35.005-.474.13zM7.04 22.66l-.69.69c-.189.191-.188.499.002.689.19.19.497.19.689.002l.69-.69c.124-.124.172-.304.127-.473-.045-.168-.177-.3-.346-.345-.168-.045-.348.003-.472.126zM19.473 22.66c-.123-.125-.303-.174-.473-.13-.169.046-.301.178-.346.347-.045.17.004.35.129.473l.69.69c.191.19.5.189.689-.001.19-.19.19-.498.002-.689l-.69-.69zM7.084 10.27c-.123-.125-.304-.174-.473-.129-.17.045-.302.177-.347.347-.045.169.004.35.129.472l.647.648c.124.123.304.172.472.126.169-.045.3-.176.346-.345.045-.168-.003-.348-.127-.472l-.647-.647zM18.046 12.357c-.134-.134-.334-.178-.513-.113l-6.524 2.38c-.136.05-.243.156-.292.292l-2.38 6.524c-.055.15-.033.317.058.448.092.13.241.208.4.208.058 0 .114-.01.168-.03l6.524-2.38c.136-.05.243-.156.292-.291l2.38-6.525c.065-.178.021-.378-.113-.513zm-3.107 6.49L9.614 20.79l1.943-5.326 5.325-1.943-1.943 5.325z" transform="translate(-81 -168) translate(81 168)"/>
            </g>
        </g>
    </g>
</svg>
