<svg xmlns="http://www.w3.org/2000/svg" width="13" height="7" viewBox="0 0 13 7">
    <g fill="none" fill-rule="evenodd">
        <g fill="#606574" fill-rule="nonzero">
            <path d="M15.941 172.85l4.861-4.73c.255-.247.265-.658.022-.918-.242-.26-.645-.27-.9-.023l-5.551 5.402c-.24.245-.373.572-.373.92 0 .346.133.673.384.93l5.54 5.39c.124.12.282.179.44.179.167 0 .335-.068.46-.202.243-.26.233-.67-.022-.919l-4.88-4.729c-.342-.288-.511-.505-.51-.65.003-.145.18-.361.53-.65z" transform="translate(-11 -170) matrix(0 -1 -1 0 191 191)"/>
        </g>
    </g>
</svg>
