<svg xmlns="http://www.w3.org/2000/svg" width="19" height="18" viewBox="0 0 19 18">
    <g fill="none" fill-rule="evenodd">
        <g stroke="#E94441" stroke-width="1.62">
            <g>
                <path stroke-linecap="square" d="M1.122 9.677c-.125.122-.208.28-.236.453L0 15.683l5.827-.608c.182-.019.351-.099.482-.226l9.262-9.122c.622-.608.872-1.503.654-2.345-.175-.678-.615-1.38-1.32-2.104C13.596-.07 12.19-.352 10.693.434c-.207.108-.397.246-.565.409L1.122 9.677zm-.194 3.925l1.229 1.27" transform="translate(-357 -68) translate(358 69)"/>
                <path stroke-linecap="round" d="M5.353 10.719L12.134 4.158" transform="translate(-357 -68) translate(358 69)"/>
            </g>
        </g>
    </g>
</svg>
