<svg xmlns="http://www.w3.org/2000/svg" width="17" height="17" viewBox="0 0 17 17">
    <g fill="none" fill-rule="evenodd">
        <g fill="#ADADAD" fill-rule="nonzero">
            <g>
                <g>
                    <g>
                        <path d="M11.827 0c.144 0 .283.055.387.155l2.232 2.124h1.35c.33 0 .517.188.562.563 0 .31-.252.562-.562.562h-1.012v12.27h.894c.31 0 .562.252.562.562 0 .311-.252.563-.562.563H.699c-.31 0-.562-.252-.562-.563 0-.31.252-.562.562-.562h.876l.018-12.27H.563C.252 3.404 0 3.152 0 2.842c0-.375.188-.563.563-.563H1.93L4.142.157c.105-.1.245-.157.39-.157zM8.754 14.01h-1.15v1.664h1.15V14.01zm2.848-12.885H4.758l-2.04 1.957L2.7 15.674H6.48v-2.227c0-.31.252-.562.563-.562h2.275c.31 0 .562.252.562.562v2.227h3.78V3.083l-2.057-1.958zM7.042 7.74c.31 0 .562.252.562.563v2.489c0 .31-.252.562-.562.562H4.606c-.31 0-.562-.252-.562-.562V8.302c0-.31.252-.563.562-.563zm4.71 0c.31 0 .562.252.562.563v2.489c0 .31-.252.562-.562.562H9.317c-.311 0-.563-.252-.563-.562V8.302c0-.31.252-.563.563-.563zM6.479 8.865h-1.31v1.363h1.31V8.865zm4.71 0H9.88v1.363h1.31V8.865zM7.042 2.993c.31 0 .562.252.562.562v2.489c0 .31-.252.563-.562.563H4.606c-.31 0-.562-.252-.562-.563V3.555c0-.31.252-.562.562-.562zm4.71 0c.31 0 .562.252.562.562v2.489c0 .31-.252.563-.562.563H9.317c-.311 0-.563-.252-.563-.563V3.555c0-.31.252-.562.563-.562zM6.479 4.118h-1.31V5.48h1.31V4.118zm4.71 0H9.88V5.48h1.31V4.118z" transform="translate(-273 -474) translate(32 451) translate(92 22) translate(149 1)"/>
                    </g>
                </g>
            </g>
        </g>
    </g>
</svg>
