<svg xmlns="http://www.w3.org/2000/svg" width="12" height="14" viewBox="0 0 12 14">
    <g fill="none" fill-rule="evenodd">
        <g stroke="#606574" stroke-width="1.2">
            <path d="M39 308.4c2.532 0 4.6 1.985 4.6 4.438 0 1.014-.357 1.979-1 2.759L39 319.94l-.462-.557-3.14-3.787c-.642-.779-.998-1.744-.998-2.758 0-2.453 2.068-4.438 4.6-4.438zm0 5.514c.667 0 1.2-.512 1.2-1.128 0-.615-.533-1.127-1.2-1.127-.667 0-1.2.512-1.2 1.127 0 .616.533 1.128 1.2 1.128z" transform="translate(-33 -307)"/>
        </g>
    </g>
</svg>
