<svg xmlns="http://www.w3.org/2000/svg" width="17" height="22" viewBox="0 0 17 22">
    <g fill="none" fill-rule="evenodd" opacity=".6">
        <g fill="#757F7E">
            <path d="M142.5 211l.058.002c4.655.073 8.442 3.903 8.442 8.537 0 5.667-6.083 11.405-8.5 13.461-.162-.138-.34-.293-.532-.463l-.01-.008c-2.675-2.366-7.958-7.708-7.958-12.99 0-4.634 3.787-8.464 8.442-8.537l.058-.002zm.08 3.255c-2.456 0-4.447 1.983-4.447 4.427 0 2.446 1.99 4.428 4.447 4.428s4.448-1.982 4.448-4.428c0-2.444-1.99-4.427-4.448-4.427z" transform="translate(-134 -211)"/>
        </g>
    </g>
</svg>
