<svg xmlns="http://www.w3.org/2000/svg" width="150" height="132" viewBox="0 0 150 132">
    <g fill="none" fill-rule="evenodd">
        <g>
            <g>
                <g transform="translate(-132 -664) translate(132 665)">
                    <g transform="translate(0 3.33)">
                        <path fill="#E5E5EB" fill-rule="nonzero" d="M78.256 125.07c67.285-12.164 59.216-57.856 70.658-85.11 11.44-27.253-85.457-50.57-110.064-25.53C14.244 39.471-8.392 48.972 11.432 75.481c19.823 26.51-.46 61.752 66.824 49.589z"/>
                        <path stroke="#8F1538" stroke-linejoin="round" stroke-width="1.11" d="M141.013 77.612L147.556 77.602 147.546 84.145 141.003 84.155z" opacity=".6" transform="rotate(45 144.28 80.879)"/>
                        <path stroke="#70BF47" stroke-linejoin="round" stroke-width=".888" d="M0.73 60.951L5.002 60.951 5.002 65.192 0.73 65.192z" opacity=".6"/>
                        <ellipse cx="27.427" cy="110.786" stroke="#5B45C8" stroke-linejoin="round" stroke-width=".888" opacity=".6" rx="2.136" ry="2.12"/>
                        <ellipse cx="91.429" cy="3.711" stroke="#70BF47" stroke-linejoin="round" stroke-width="1.11" opacity=".6" rx="3.737" ry="3.711"/>
                        <path stroke="#904800" stroke-linejoin="round" stroke-width="1.11" d="M140.924 41.071L144.185 47.609 137.643 47.618z" opacity=".6" transform="rotate(45 140.914 44.344)"/>
                        <path stroke="#6D6D6D" stroke-linejoin="round" stroke-width="1.11" d="M21.498 18.87L25.235 26.293 17.76 26.293z" opacity=".6"/>
                    </g>
                    <path stroke="#6D6D6D" stroke-linejoin="round" stroke-width=".888" d="M118.776 9.995L123.047 9.99 123.042 14.233 118.772 14.237z" opacity=".6" transform="rotate(9 120.91 12.114)"/>
                    <circle cx="38.85" cy="2.22" r="2.22" stroke="#8F1538" stroke-linejoin="round" stroke-width="1.11" opacity=".6"/>
                </g>
                <g fill="#E94441" fill-rule="nonzero" stroke="#E5E5EB" stroke-width=".7">
                    <path d="M17.453 86.918c0 .962-.783 1.745-1.745 1.745-.962 0-1.745-.783-1.745-1.745 0-.962.783-1.745 1.745-1.745.962 0 1.745.783 1.745 1.745zm52.36-85.173l-.003 71.908c0 .454-.174.9-.507 1.235L56.038 88.152c-.334.334-.78.511-1.234.511H23.562c-.963 0-1.745-.783-1.745-1.745 0-.962.782-1.745 1.745-1.745h29.496v-11.52c0-.963.782-1.745 1.746-1.745h11.519V3.491H3.491v81.682h4.363c.962 0 1.745.783 1.745 1.745 0 .962-.783 1.745-1.745 1.745H1.745C.782 88.663 0 87.882 0 86.918V1.745C0 .782.782 0 1.745 0h66.323c.964 0 1.746.782 1.746 1.745zM63.856 75.4h-7.306v7.305l7.306-7.305zM43.634 29.322H29.67c-.964 0-1.746.781-1.746 1.745 0 .964.782 1.745 1.746 1.745h13.963c.963 0 1.745-.781 1.745-1.745 0-.964-.782-1.745-1.745-1.745zM29.67 39.794h10.472c.964 0 1.745-.782 1.745-1.746 0-.963-.781-1.745-1.745-1.745H29.67c-.964 0-1.746.782-1.746 1.745 0 .964.782 1.746 1.746 1.746zm0 13.963h6.981c.964 0 1.746-.782 1.746-1.746s-.782-1.745-1.746-1.745h-6.981c-.964 0-1.746.781-1.746 1.745 0 .964.782 1.746 1.746 1.746zm15.708 5.236c0-.964-.782-1.746-1.745-1.746H29.67c-.964 0-1.746.782-1.746 1.746 0 .963.782 1.745 1.746 1.745h13.963c.963 0 1.745-.782 1.745-1.745zm-34.02-28.505c-.56-.833-.887-1.835-.887-2.912 0-2.887 2.349-5.236 5.236-5.236 2.887 0 5.236 2.35 5.236 5.236 0 1.077-.327 2.079-.886 2.912 2.613 1.51 4.377 4.332 4.377 7.56 0 .964-.782 1.746-1.746 1.746H8.727c-.964 0-1.746-.782-1.746-1.746 0-3.228 1.764-6.05 4.378-7.56h0zm2.604-2.912c0 .963.783 1.746 1.745 1.746.962 0 1.745-.783 1.745-1.746 0-.962-.783-1.745-1.745-1.745-.962 0-1.745.783-1.745 1.745zm-3.192 8.727h9.874c-.72-2.032-2.662-3.49-4.937-3.49-2.275 0-4.216 1.458-4.937 3.49zm-3.79 22.69c0-3.23 1.764-6.052 4.378-7.561-.56-.833-.887-1.835-.887-2.911 0-2.888 2.349-5.236 5.236-5.236 2.887 0 5.236 2.348 5.236 5.236 0 1.076-.327 2.078-.886 2.91 2.613 1.51 4.377 4.333 4.377 7.562 0 .963-.782 1.745-1.746 1.745H8.727c-.964 0-1.746-.782-1.746-1.745zm6.982-10.472c0 .962.783 1.745 1.745 1.745.962 0 1.745-.783 1.745-1.745 0-.963-.783-1.746-1.745-1.746-.962 0-1.745.783-1.745 1.746zm-3.192 8.726h9.874c-.72-2.032-2.662-3.49-4.937-3.49-2.275 0-4.216 1.458-4.937 3.49zm-3.79 22.69c0-3.229 1.764-6.052 4.378-7.56-.56-.834-.887-1.836-.887-2.912 0-2.888 2.349-5.236 5.236-5.236 2.887 0 5.236 2.348 5.236 5.236 0 1.076-.327 2.078-.886 2.911 2.613 1.51 4.377 4.332 4.377 7.56 0 .964-.782 1.746-1.746 1.746H8.727c-.964 0-1.746-.782-1.746-1.745zm6.982-10.472c0 .962.783 1.745 1.745 1.745.962 0 1.745-.783 1.745-1.745 0-.963-.783-1.746-1.745-1.746-.962 0-1.745.783-1.745 1.746zM10.77 78.19h9.874c-.72-2.031-2.662-3.49-4.937-3.49-2.275 0-4.216 1.459-4.937 3.49zm18.9 0c-.964 0-1.746.782-1.746 1.746 0 .963.782 1.745 1.746 1.745h6.981c.964 0 1.746-.782 1.746-1.745 0-.964-.782-1.746-1.746-1.746h-6.981zm12.217-5.236c0-.963-.781-1.745-1.745-1.745H29.67c-.964 0-1.746.782-1.746 1.745 0 .964.782 1.746 1.746 1.746h10.472c.964 0 1.745-.782 1.745-1.746zM52.36 8.727v6.981c0 .964-.781 1.745-1.745 1.745H19.199c-.964 0-1.746-.781-1.746-1.745V8.727c0-.964.782-1.746 1.746-1.746h31.416c.964 0 1.745.782 1.745 1.746zm-3.49 1.745H20.944v3.49H48.87v-3.49zM59.853 48.1l-5.341 5.34-2.663-2.662c-.682-.681-1.786-.681-2.468 0-.682.682-.682 1.787 0 2.469l3.896 3.896c.65.65 1.762.707 2.469 0l6.575-6.575c.682-.682.682-1.787 0-2.468-.682-.682-1.786-.682-2.468 0h0zm2.468-20.945c-.682-.681-1.786-.681-2.468 0l-5.341 5.342-2.663-2.663c-.682-.681-1.787-.681-2.469 0-.681.682-.681 1.787 0 2.468l3.897 3.897c.65.65 1.762.707 2.469 0l6.575-6.575c.682-.682.682-1.787 0-2.469h0z" transform="translate(-132 -664) translate(132 665) translate(41 24)"/>
                </g>
            </g>
        </g>
    </g>
</svg>
