<svg xmlns="http://www.w3.org/2000/svg" width="8" height="12" viewBox="0 0 8 12">
    <g fill="none" fill-rule="evenodd" opacity=".7">
        <g fill="#505050" fill-rule="nonzero" stroke="#505050" stroke-width=".7">
            <path d="M129.664 169.5l4.166-3.638c.219-.19.227-.507.02-.707-.208-.2-.554-.208-.772-.017l-4.758 4.155c-.206.189-.32.44-.32.707 0 .267.114.518.33.716l4.748 4.146c.106.092.241.138.376.138.144 0 .288-.052.396-.155.207-.2.199-.516-.02-.707l-4.183-3.638c-.196-.22-.293-.386-.291-.5.002-.114.104-.28.308-.5z" transform="translate(-127 -164) matrix(-1 0 0 1 262 0)"/>
        </g>
    </g>
</svg>
